<?xml version="1.0" standalone="no"?>
<!DOCTYPE svg PUBLIC "-//W3C//DTD SVG 20010904//EN"
 "http://www.w3.org/TR/2001/REC-SVG-20010904/DTD/svg10.dtd">
<svg version="1.0" xmlns="http://www.w3.org/2000/svg"
 width="1472.000000pt" height="832.000000pt" viewBox="0 0 1472.000000 832.000000"
 preserveAspectRatio="xMidYMid meet">

<g transform="translate(0.000000,832.000000) scale(0.100000,-0.100000)"
fill="#000000" stroke="none">
<path d="M5271 6434 c-172 -46 -301 -179 -330 -338 -14 -76 -15 -3652 -2
-3771 15 -130 42 -189 125 -270 42 -41 94 -81 128 -97 127 -62 -4 -59 2195
-56 l2008 3 67 26 c124 49 231 136 279 231 50 99 49 59 47 1630 l-3 1463 -62
3 -62 3 -3 -1283 c-3 -999 -6 -1291 -16 -1320 -17 -51 -100 -151 -119 -144 -8
3 -12 2 -9 -3 8 -13 -63 -47 -135 -65 -68 -17 -231 -22 -194 -6 24 10 -40 12
-460 13 -192 1 -266 3 -195 7 l115 6 -95 5 c-52 4 -36 4 35 1 198 -9 369 -8
478 2 l98 9 -2 48 c-2 36 -6 46 -14 39 -14 -12 -26 -3 -19 14 3 8 -10 10 -41
8 -56 -5 -65 -32 -11 -32 19 0 38 -4 41 -10 4 -6 -12 -10 -42 -10 -26 0 -99
-3 -160 -7 -101 -5 -113 -4 -113 10 0 15 -23 17 -202 20 l-203 2 243 3 242 2
0 115 0 115 40 0 40 0 0 40 0 40 80 0 c63 0 80 -3 80 -14 0 -24 18 -28 42 -12
12 9 32 16 43 15 14 0 9 -5 -17 -17 -21 -9 -38 -21 -38 -26 0 -4 12 -1 26 8
14 10 30 16 36 14 6 -2 -3 -10 -20 -17 -18 -8 -32 -17 -32 -22 0 -5 -5 -9 -11
-9 -5 0 -8 4 -5 9 3 5 -1 11 -9 14 -11 5 -13 -1 -10 -27 3 -22 -1 -38 -10 -46
-15 -13 -14 -26 8 -108 12 -43 42 -70 110 -100 38 -16 130 -15 172 2 18 8 36
12 39 10 3 -2 4 -1 2 2 -3 3 11 20 30 36 19 17 41 43 49 58 14 27 14 87 0 109
-5 9 -2 12 11 9 15 -3 19 -12 17 -38 -1 -28 0 -31 9 -17 5 10 9 68 9 129 -1
80 2 114 11 120 18 11 19 389 1 396 -19 6 -17 82 2 82 11 0 15 11 15 40 0 29
-4 40 -15 40 -12 0 -15 15 -15 79 0 50 4 81 11 83 7 2 13 59 17 161 5 155 5
157 -17 157 -18 0 -21 6 -21 40 0 33 -3 40 -19 40 -24 0 -34 28 -27 77 l6 38
-16 -35 c-12 -26 -13 -39 -5 -52 14 -22 14 -58 1 -78 -7 -11 -10 -1 -11 35 0
36 -3 44 -8 30 -5 -11 -6 -23 -4 -28 2 -4 1 -21 -2 -39 -5 -22 -9 -27 -16 -17
-12 20 -11 31 3 23 8 -5 9 -2 5 10 -4 9 4 54 17 99 26 91 46 247 46 367 0 304
-117 640 -317 908 -78 105 -260 286 -363 362 -295 217 -663 368 -1075 441
-114 20 -163 23 -405 24 -217 0 -299 -4 -390 -18 -564 -88 -1002 -295 -1335
-631 -242 -244 -398 -536 -451 -846 -21 -123 -21 -373 0 -494 8 -49 12 -94 9
-99 -3 -6 -1 -7 5 -3 12 7 13 1 16 -78 1 -16 7 -31 14 -34 7 -2 12 -13 12 -24
0 -13 5 -18 14 -15 18 7 28 -17 20 -48 -3 -13 0 -26 7 -31 9 -5 11 -2 6 9 -3
9 -1 17 5 19 8 3 9 11 3 24 -12 27 -14 44 -7 44 12 -1 51 -100 40 -100 -6 0
-8 -10 -4 -25 8 -31 -1 -32 -31 -3 l-23 21 0 -26 c0 -21 5 -27 23 -28 12 0 17
-2 12 -5 -6 -2 -9 -24 -7 -49 3 -36 1 -45 -12 -45 -13 0 -16 -13 -16 -80 l0
-80 -79 0 -79 0 2 -131 c1 -112 -1 -132 -16 -143 -12 -9 -18 -31 -21 -72 -2
-32 -4 117 -4 331 0 215 3 433 7 485 4 52 5 -86 3 -307 -3 -328 -2 -403 9
-403 10 0 13 81 13 427 0 234 -3 413 -7 397 -4 -16 -5 5 -2 46 3 41 7 84 10
95 4 16 3 17 -5 5 -6 -8 -11 -33 -12 -55 l-2 -40 -7 40 c-5 24 -6 10 -3 -37 3
-51 1 -78 -5 -78 -6 0 -12 -19 -14 -42 -5 -68 -9 191 -14 1062 -3 495 -1 839
5 877 5 34 17 79 27 99 26 54 103 126 160 149 48 20 75 20 1572 23 l1522 2 0
60 0 60 -1507 -1 c-1284 0 -1516 -2 -1562 -15z m2451 -478 c107 -17 218 -44
339 -82 68 -21 79 -28 79 -47 0 -28 -56 -127 -190 -332 -138 -213 -163 -243
-208 -251 -49 -9 -102 -36 -132 -69 -22 -23 -25 -36 -25 -95 0 -38 -3 -71 -6
-75 -4 -3 -48 2 -100 11 -79 15 -109 16 -199 6 -294 -31 -506 -189 -560 -421
-18 -75 -8 -219 21 -300 l22 -65 -23 -15 c-54 -37 -968 -491 -1000 -497 -31
-6 -37 -3 -71 35 -64 71 -151 257 -193 411 -40 145 -45 397 -11 540 69 290
192 500 421 720 327 313 743 493 1259 544 88 9 484 -4 577 -18z m856 -332
c133 -90 288 -235 376 -348 221 -286 318 -571 303 -891 -14 -313 -128 -579
-342 -803 -82 -85 -83 -85 -107 -69 -24 17 -31 21 -348 200 -107 61 -232 132
-278 159 -45 26 -84 48 -87 48 -9 0 -241 142 -255 156 -13 14 -10 19 27 52 54
48 119 151 140 222 10 32 16 88 16 135 -1 152 -61 255 -233 403 -40 35 -44 75
-12 138 29 57 351 541 443 665 l80 108 82 -49 c45 -27 133 -83 195 -126z
m-1076 -725 c83 -18 151 -56 232 -131 105 -96 131 -151 131 -278 0 -85 -3
-101 -29 -154 -55 -112 -176 -204 -316 -241 -72 -19 -249 -19 -320 0 -136 36
-277 140 -324 238 -73 155 -44 311 81 433 64 62 131 99 225 124 84 22 238 26
320 9z m-628 -785 c28 -27 31 -65 10 -102 -22 -36 -668 -708 -697 -724 -25
-13 -168 65 -302 164 -106 78 -127 107 -107 143 16 29 1022 535 1063 535 10 0
25 -7 33 -16z m2506 -97 c11 -5 9 -6 -4 -4 -11 1 -21 9 -23 17 -3 10 -2 11 4
4 4 -6 15 -14 23 -17z m-1635 -32 c28 -18 127 -79 220 -135 237 -143 255 -156
255 -186 l0 -25 21 20 c25 23 10 29 194 -77 257 -149 285 -166 285 -174 0 -23
-232 -174 -385 -251 -156 -77 -440 -167 -613 -192 -177 -26 -354 -38 -362 -25
-4 6 -10 219 -14 473 -4 254 -9 476 -12 493 -8 45 13 60 93 67 37 4 109 17
158 30 50 13 95 21 100 18 6 -2 33 -19 60 -36z m1775 -10 c0 -40 -4 -55 -14
-55 -9 0 -15 15 -17 44 -3 32 -1 42 9 39 6 -3 12 2 12 11 0 9 2 16 5 16 3 0 5
-25 5 -55z m-186 -12 c-12 -13 -15 -13 -11 -3 4 8 10 24 14 35 6 18 8 18 11 3
2 -10 -4 -26 -14 -35z m109 40 c-7 -2 -21 -2 -30 0 -10 3 -4 5 12 5 17 0 24
-2 18 -5z m-4364 -1098 l4 140 6 -157 c7 -170 20 -224 22 -87 1 46 3 76 6 67
3 -13 15 -18 44 -18 22 0 49 -5 60 -10 11 -6 19 -7 19 -2 0 13 -45 42 -65 42
-11 0 -15 11 -15 40 0 33 3 40 20 40 17 0 20 -7 20 -38 0 -34 4 -41 35 -58 19
-10 35 -22 35 -26 0 -9 -40 -21 -47 -15 -3 3 -15 -5 -28 -19 -13 -14 -25 -21
-27 -17 -3 4 -3 2 -1 -5 1 -7 -4 -26 -12 -42 -8 -16 -15 -33 -15 -37 1 -4 10
10 22 32 19 37 58 84 58 69 0 -3 -9 -17 -20 -31 -14 -18 -20 -41 -20 -75 0
-62 29 -104 99 -141 61 -34 147 -37 205 -8 21 11 44 17 51 15 7 -3 16 -1 20 5
4 7 -1 8 -12 4 -16 -6 -16 -5 -4 10 8 10 16 15 19 12 3 -3 11 0 19 6 16 14 17
5 2 -24 -10 -21 -10 -21 6 -2 18 23 14 41 -9 37 -14 -3 -14 1 3 29 11 18 18
44 17 58 -2 14 -1 18 1 9 3 -13 15 -18 44 -18 35 0 39 -3 39 -25 0 -25 1 -25
80 -25 l80 0 0 -40 0 -39 130 6 c128 6 130 6 130 -15 0 -21 -4 -22 -130 -22
-71 0 -130 -4 -130 -8 0 -5 -18 -8 -40 -7 -22 1 -40 -2 -40 -7 0 -4 18 -8 40
-8 27 0 40 -4 40 -14 0 -17 88 -27 224 -24 l101 2 -85 6 -85 6 70 1 c39 0 113
-2 165 -6 l95 -6 -150 -7 c-82 -4 -253 -7 -379 -8 -126 0 -232 -2 -234 -5 -3
-3 311 -5 698 -5 387 0 701 -2 699 -4 -8 -8 -1397 -13 -1497 -5 -118 9 -186
28 -253 71 -53 33 -122 115 -114 136 2 7 1 11 -4 7 -26 -15 -31 115 -29 728
l3 632 5 -620 c3 -341 7 -557 9 -480z m1841 993 l-1 -53 -230 -235 c-127 -129
-292 -300 -367 -380 -86 -92 -144 -146 -159 -148 -24 -3 -220 95 -242 121 -9
11 -6 21 11 43 12 16 23 30 24 32 1 2 10 -1 21 -7 10 -6 58 -29 107 -51 l88
-41 31 33 c49 53 712 737 715 738 1 0 2 -24 2 -52z m2437 -15 c-3 -10 -5 -4
-5 12 0 17 2 24 5 18 2 -7 2 -21 0 -30z m-61 -11 c-15 -15 -15 -15 -4 10 7 15
15 23 17 17 2 -6 -4 -18 -13 -27z m-3917 -54 c-14 -26 -11 -34 6 -12 8 10 15
14 15 7 0 -6 -4 -15 -10 -18 -19 -12 -11 -26 9 -16 14 8 20 7 24 -3 4 -9 -5
-13 -27 -13 -32 0 -32 1 -32 49 1 26 -2 48 -7 48 -4 0 -5 5 -1 11 11 19 34
-33 23 -53z m1761 -25 c41 -9 79 -22 83 -28 4 -5 8 -77 8 -160 0 -82 2 -244 5
-358 4 -156 2 -207 -7 -202 -7 5 -10 25 -6 54 2 25 2 40 0 34 -10 -27 -23 -11
-23 27 0 29 -4 40 -15 40 -11 0 -15 11 -15 40 0 36 -2 40 -25 40 -22 0 -25 4
-25 40 0 33 3 40 20 40 17 0 20 7 20 40 0 36 3 40 24 40 23 0 24 3 23 63 -1
34 -3 52 -5 40 -3 -19 -10 -23 -43 -23 -39 0 -39 0 -39 40 0 36 3 40 25 40 23
0 25 4 25 40 0 29 -4 40 -15 40 -8 0 -15 5 -15 10 0 14 37 12 43 -2 3 -7 6 -3
6 10 1 19 -4 22 -34 22 -47 0 -45 20 3 21 l37 2 -35 6 c-19 3 -30 9 -24 13 20
13 55 -5 69 -36 l14 -31 -2 34 c-2 32 -5 35 -49 46 -34 8 -49 9 -52 1 -3 -7
-7 -8 -13 -1 -4 6 -21 16 -38 24 -27 11 -31 11 -47 -9 -10 -12 -18 -31 -18
-41 0 -10 -7 -19 -15 -19 -8 0 -15 -5 -15 -10 0 -7 6 -7 19 -1 14 8 22 6 35
-8 23 -25 20 -31 -16 -30 -24 1 -27 3 -10 6 12 2 22 9 22 15 0 6 -10 8 -22 5
-12 -4 -28 -1 -36 5 -11 9 -13 9 -12 -3 4 -25 0 -39 -11 -39 -5 0 -7 5 -3 12
5 8 1 9 -12 5 -11 -4 -4 7 19 28 20 19 37 38 37 41 0 2 10 18 22 35 16 22 28
29 43 25 11 -3 54 -13 95 -23z m2135 0 c-3 -50 -5 -54 -16 -47 -8 4 -8 9 0 17
6 6 11 18 11 26 0 10 -6 7 -17 -9 -9 -14 -27 -37 -41 -52 -13 -14 -21 -31 -18
-37 5 -7 1 -8 -10 -4 -11 4 -15 2 -11 -4 4 -5 -11 -27 -32 -49 -33 -32 -38
-42 -30 -62 13 -34 10 -41 -5 -13 -9 17 -15 20 -21 11 -4 -7 -2 -16 5 -20 16
-10 -6 -25 -35 -25 -17 0 -20 -6 -19 -42 1 -38 -1 -43 -20 -42 -19 1 -19 2 -2
6 15 4 16 7 5 14 -12 8 -12 10 1 18 8 6 12 12 9 16 -3 3 -18 -6 -32 -19 -17
-16 -22 -26 -14 -29 7 -3 2 -6 -11 -6 -15 -1 -21 -5 -16 -13 4 -7 3 -8 -4 -4
-7 4 -23 -4 -38 -17 l-26 -24 31 1 c23 1 30 5 25 16 -4 11 -2 12 7 3 15 -15 2
-35 -20 -28 -25 8 -58 -28 -56 -61 1 -25 -3 -29 -24 -31 l-26 -1 24 19 c13 11
21 22 17 26 -3 4 1 17 9 30 9 13 12 23 7 23 -14 0 -46 -39 -39 -47 9 -8 -22
-43 -37 -43 -6 0 -3 7 8 15 10 7 15 18 12 23 -3 6 42 53 101 105 111 97 182
173 242 259 19 26 38 48 42 48 5 0 9 7 9 15 0 8 5 15 11 15 5 0 7 5 3 12 -5 7
-3 8 6 3 10 -6 12 -4 7 9 -4 9 -3 14 2 11 5 -3 12 -1 16 5 10 16 12 12 10 -17z
m-2215 -13 c0 -5 -4 -10 -10 -10 -5 0 -10 5 -10 10 0 6 5 10 10 10 6 0 10 -4
10 -10z m-30 -20 c0 -5 -5 -10 -11 -10 -5 0 -7 5 -4 10 3 6 8 10 11 10 2 0 4
-4 4 -10z m-1548 -89 c-4 -3 -15 -14 -24 -23 -15 -16 -16 -16 -14 6 1 16 6 22
15 18 11 -4 13 1 8 19 -6 23 -5 23 8 5 8 -11 12 -22 7 -25z m1456 -31 c12 -16
22 -33 22 -37 0 -4 -7 0 -15 10 -9 13 -20 17 -37 12 -17 -5 -19 -4 -8 4 18 13
8 24 -14 15 -24 -9 -14 -28 20 -36 l29 -7 -32 3 c-31 2 -31 2 -30 -38 2 -39 1
-41 -31 -44 -18 -2 -41 3 -50 10 -14 11 -15 11 -9 -4 20 -51 20 -52 -2 -28
l-22 25 5 -26 c4 -19 1 -29 -11 -33 -21 -9 -31 3 -13 14 8 6 11 10 5 10 -5 0
-17 -5 -25 -10 -13 -9 -12 -13 5 -27 16 -13 17 -15 3 -10 -10 4 -18 2 -18 -3
0 -6 -5 -10 -11 -10 -5 0 -7 5 -3 11 4 7 2 10 -5 8 -7 -3 -12 -9 -12 -14 0 -6
-11 -16 -24 -23 -14 -7 -22 -18 -19 -26 6 -17 -8 -27 -23 -18 -12 8 275 302
294 302 5 0 19 -13 31 -30z m-1453 -6 c-17 -13 -18 -16 -5 -24 17 -11 9 -13
-15 -4 -14 6 -13 9 6 30 12 13 25 21 28 18 3 -3 -3 -12 -14 -20z m175 -145
c30 -28 45 -45 32 -39 -37 18 -182 169 -182 188 0 4 22 -17 48 -46 26 -29 72
-76 102 -103z m3520 145 c0 -7 -27 -34 -34 -34 -4 0 -1 9 6 20 12 19 28 27 28
14z m-3820 -74 l0 -40 -40 0 -40 0 0 40 0 40 40 0 40 0 0 -40z m185 0 c3 -5 1
-10 -4 -10 -6 0 -11 5 -11 10 0 6 2 10 4 10 3 0 8 -4 11 -10z m25 -30 c0 -5
-4 -10 -10 -10 -5 0 -10 5 -10 10 0 6 5 10 10 10 6 0 10 -4 10 -10z m1470 -90
l0 -80 -40 0 -40 0 0 80 0 80 40 0 40 0 0 -80z m-1420 40 c0 -5 7 -10 15 -10
20 0 19 -16 -1 -24 -22 -9 -24 -8 -18 9 4 8 1 15 -5 15 -6 0 -11 5 -11 10 0 6
5 10 10 10 6 0 10 -4 10 -10z m1175 -20 c3 -5 1 -10 -4 -10 -6 0 -11 5 -11 10
0 6 2 10 4 10 3 0 8 -4 11 -10z m-1355 -60 l0 -40 40 0 40 0 0 -40 0 -40 40 0
40 0 0 -40 0 -40 -120 0 -120 0 0 40 0 40 -40 0 -40 0 0 -40 0 -40 -40 0 -40
0 0 -40 0 -40 -40 0 -40 0 0 80 c0 73 2 80 20 80 17 0 20 7 20 40 l0 40 60 0
60 0 0 40 0 40 80 0 80 0 0 -40z m267 15 c9 -24 -1 -27 -15 -5 -8 13 -8 20 -2
20 6 0 13 -7 17 -15z m39 -12 c-7 -7 -26 7 -26 19 0 6 6 6 15 -2 9 -7 13 -15
11 -17z m969 -2 c-8 -14 -35 -14 -35 -1 0 5 7 7 15 4 8 -4 15 -1 15 7 0 7 3
10 6 6 3 -3 3 -10 -1 -16z m-863 -64 l33 -27 -29 14 c-22 11 -33 12 -43 4 -11
-8 -12 -7 -7 6 3 9 1 23 -6 31 -15 18 -34 20 -24 3 4 -7 3 -10 -1 -5 -5 4 -10
17 -12 28 -3 20 -2 20 27 -3 16 -13 44 -35 62 -51z m-167 44 c-3 -5 7 -12 22
-14 16 -2 -2 -5 -39 -6 -54 -1 -68 2 -68 14 0 11 12 15 46 15 25 0 43 -4 39
-9z m993 -7 c14 -15 14 -16 -3 -13 -10 2 -20 10 -23 17 -5 17 6 15 26 -4z
m-78 -29 c0 -9 -9 -15 -21 -15 -18 0 -19 -2 -9 -15 9 -10 9 -15 1 -16 -26 -3
-30 -4 -37 -11 -4 -5 -2 -8 4 -8 7 0 12 -7 12 -15 0 -21 -20 -19 -21 3 -1 16
-2 16 -6 0 -2 -9 -13 -20 -23 -23 -11 -3 -17 -12 -14 -20 3 -7 1 -16 -5 -20
-7 -4 -9 1 -5 12 4 14 1 12 -15 -6 -24 -27 -27 -43 -7 -35 8 3 16 -3 19 -15 4
-19 3 -19 -16 -9 -12 7 -28 11 -36 9 -9 -2 -7 7 7 26 26 34 159 173 166 173 3
0 6 -7 6 -15z m-810 -29 c0 -8 -7 -16 -15 -20 -10 -4 -15 1 -15 14 0 11 7 20
15 20 8 0 15 -6 15 -14z m2997 -11 c-15 -14 -33 -25 -40 -25 -6 0 4 11 23 25
45 31 53 31 17 0z m-2152 -14 c-3 -6 -14 -11 -23 -11 -15 1 -15 2 2 15 21 16
32 13 21 -4z m245 -116 l0 -135 40 0 40 0 0 -40 0 -40 40 0 40 0 0 -40 0 -40
-80 0 -80 0 0 80 0 80 -80 0 -80 0 0 -80 0 -80 -40 0 -40 0 0 120 0 120 80 0
80 0 0 95 0 95 40 0 40 0 0 -135z m-1058 118 c-6 -2 -10 -9 -6 -14 3 -5 14 -4
27 2 12 7 0 -11 -27 -41 l-50 -53 27 -21 c21 -17 24 -25 15 -34 -7 -7 -16 -12
-22 -12 -5 0 -1 7 10 16 10 8 13 13 6 9 -19 -10 -40 12 -37 38 1 12 3 30 4 39
1 11 6 15 16 12 19 -8 19 3 0 23 -9 8 -13 18 -10 22 4 3 13 -2 20 -12 8 -12
15 -14 20 -8 3 6 1 11 -4 11 -6 0 -11 7 -11 15 0 8 8 15 18 14 10 0 12 -3 4
-6z m-59 -26 c3 -7 3 -25 0 -40 -5 -24 -10 -27 -44 -27 -39 0 -39 0 -39 40 0
40 0 40 39 40 23 0 41 -5 44 -13z m2954 -24 c-4 -29 -18 -45 -34 -39 -18 7
-59 -19 -44 -29 6 -3 11 -18 11 -33 0 -20 -3 -23 -9 -13 -5 8 -7 21 -3 29 4
11 1 13 -8 7 -9 -5 -11 -4 -6 3 13 22 -25 6 -64 -25 -2 -2 2 -8 10 -13 10 -6
2 -8 -23 -7 -20 1 -37 3 -37 3 0 1 33 21 73 45 39 24 75 47 78 52 4 5 10 4 13
-2 4 -6 12 -11 18 -11 7 0 7 4 -1 13 -8 10 -7 17 1 25 17 17 28 15 25 -5z
m-2190 -10 c-4 -3 -2 -12 4 -20 9 -10 8 -13 -5 -13 -9 0 -16 8 -16 20 0 11 5
20 12 20 6 0 8 -3 5 -7z m-133 -88 c-5 -11 -2 -13 9 -9 9 3 24 1 34 -5 15 -9
13 -10 -9 -5 -20 4 -28 2 -28 -7 0 -12 -2 -12 -9 0 -5 7 -14 10 -21 6 -8 -5
-5 -13 10 -27 12 -11 18 -23 15 -26 -4 -4 -12 0 -19 9 -11 15 -13 15 -35 -2
-12 -10 -20 -23 -17 -28 4 -5 1 -13 -5 -17 -8 -4 -9 -3 -5 4 4 7 1 12 -8 12
-8 0 -21 -12 -28 -27 -7 -14 -21 -27 -30 -29 -10 -1 20 36 65 82 45 46 83 84
84 84 1 0 0 -7 -3 -15z m2220 -1 c20 -8 21 -24 2 -24 -8 0 -16 7 -20 15 -6 17
-4 18 18 9z m-2852 -31 c-3 -16 -7 -22 -10 -15 -4 13 4 42 11 42 2 0 2 -12 -1
-27z m102 -2 c-2 -3 -12 3 -22 13 -16 17 -16 18 5 5 12 -7 20 -15 17 -18z
m-396 -3 c-6 -18 -28 -21 -28 -4 0 9 7 16 16 16 9 0 14 -5 12 -12z m2999 -12
c-18 -14 -18 -15 0 -25 10 -6 15 -11 10 -11 -4 0 -16 6 -27 12 -19 12 -19 13
3 25 29 16 36 16 14 -1z m-2523 -27 c20 -12 36 -22 36 -23 0 -2 -14 -2 -30 -1
-31 2 -55 15 -29 15 10 1 8 5 -5 15 -29 22 -13 18 28 -6z m-424 -14 c0 -8 -7
-15 -15 -15 -16 0 -20 12 -8 23 11 12 23 8 23 -8z m346 -6 c-21 -11 -45 -18
-54 -16 -13 4 -12 5 4 6 11 0 29 8 40 16 10 8 26 15 34 15 8 0 -3 -9 -24 -21z
m2574 11 c11 -7 8 -9 -15 -8 -16 1 -41 -1 -55 -5 l-25 -8 25 15 c29 18 49 19
70 6z m-1223 -142 c-2 -24 -4 -5 -4 42 0 47 2 66 4 43 2 -24 2 -62 0 -85z m20
60 c-2 -13 -4 -5 -4 17 -1 22 1 32 4 23 2 -10 2 -28 0 -40z m-1210 36 c-3 -3
-12 -4 -19 -1 -8 3 -5 6 6 6 11 1 17 -2 13 -5z m2265 -1 c-10 -4 -9 -9 5 -20
17 -14 17 -14 0 -9 -10 3 -37 3 -60 -1 -33 -5 -37 -8 -22 -14 13 -5 15 -8 5
-8 -8 0 -21 3 -28 8 -9 5 3 14 40 28 29 12 58 21 63 21 6 0 4 -2 -3 -5z
m-2163 -51 c-4 -2 -24 4 -43 13 -32 15 -36 15 -60 0 -14 -10 -26 -26 -26 -36
0 -11 -4 -19 -10 -19 -16 0 -11 37 6 44 8 3 12 10 9 16 -3 6 1 7 9 4 9 -4 18
0 22 9 5 13 12 12 54 -6 26 -12 44 -23 39 -25z m116 8 c8 -13 -5 -13 -25 0
-13 8 -13 10 2 10 9 0 20 -4 23 -10z m2025 -1 c-11 -8 -7 -9 18 -4 31 6 32 6
32 -29 0 -31 -3 -36 -24 -36 -42 0 -60 31 -47 78 1 1 9 2 19 2 15 0 15 -2 2
-11z m-130 -16 c-31 -14 -33 -16 -15 -23 17 -6 15 -8 -13 -15 -18 -4 -36 -4
-39 -1 -4 3 4 6 16 6 13 0 20 4 16 11 -4 6 -14 8 -23 4 -9 -3 -13 -2 -8 2 8 8
74 31 91 31 6 0 -6 -7 -25 -15z m-1580 -33 l0 -40 -40 0 -40 0 0 40 0 40 40 0
40 0 0 -40z m2080 -80 l0 -120 -80 0 -80 0 0 80 0 80 40 0 40 0 0 40 0 40 40
0 40 0 0 -120z m-1403 38 c-2 -13 -4 -3 -4 22 0 25 2 35 4 23 2 -13 2 -33 0
-45z m780 36 c-3 -3 -12 -4 -19 -1 -8 3 -5 6 6 6 11 1 17 -2 13 -5z m140 -17
c0 -9 -10 -12 -31 -8 -31 4 -31 5 -6 12 36 10 37 10 37 -4z m-247 -7 c-8 -5
-24 -9 -35 -9 -16 1 -16 2 5 9 35 11 48 11 30 0z m175 0 c3 -6 -1 -7 -9 -4
-18 7 -21 14 -7 14 6 0 13 -4 16 -10z m207 -10 l28 0 0 -80 0 -80 -80 0 -81 0
3 77 3 77 35 4 c19 2 37 8 39 14 2 6 7 6 14 -1 6 -6 24 -11 39 -11z m-2965
-12 c-7 -4 -20 -8 -30 -8 -11 0 -15 -5 -11 -11 3 -6 -5 -3 -20 6 -14 10 -26
19 -26 20 0 2 22 2 49 2 27 -1 44 -5 38 -9z m261 -4 c-9 -10 -21 -13 -29 -8
-9 5 -8 9 7 15 31 12 39 10 22 -7z m652 -25 l0 -39 120 0 120 0 0 -40 0 -40
-40 0 -40 0 0 -75 c0 -43 4 -75 10 -75 6 0 10 -9 10 -20 0 -17 -7 -20 -50 -20
-37 0 -50 4 -50 14 0 10 13 16 38 19 20 2 4 4 -36 5 -67 2 -73 0 -81 -20 -5
-14 -6 17 -3 75 l5 97 -82 0 -81 0 0 80 0 79 80 0 80 0 0 -40z m1585 33 l-20
-5 20 -9 c18 -8 18 -8 -2 -4 -34 6 -38 -11 -6 -22 16 -6 22 -11 15 -11 -7 -1
-10 -5 -7 -11 3 -5 26 -10 51 -10 32 0 44 4 44 15 0 11 11 15 40 15 29 0 40
-4 40 -15 0 -11 -11 -15 -40 -15 l-40 0 0 -40 c0 -39 -1 -40 -35 -40 -29 0
-35 4 -35 21 0 18 -2 20 -15 9 -9 -7 -14 -19 -11 -27 3 -8 1 -11 -4 -8 -6 3
-70 -1 -142 -9 -73 -8 -172 -18 -220 -21 l-88 -6 0 75 0 74 88 7 c111 8 256
24 307 35 22 4 49 8 60 8 l20 0 -20 -6z m1335 -2 c-8 -5 -19 -10 -25 -10 -5 0
-3 5 5 10 8 5 20 10 25 10 6 0 3 -5 -5 -10z m336 -14 c37 -25 23 -31 -19 -7
-19 11 -37 18 -40 15 -2 -2 -15 0 -28 5 -20 8 -17 9 18 7 23 -2 54 -11 69 -20z
m-4053 7 c-7 -2 -19 -2 -25 0 -7 3 -2 5 12 5 14 0 19 -2 13 -5z m3845 0 c-10
-2 -26 -2 -35 0 -10 3 -2 5 17 5 19 0 27 -2 18 -5z m-2028 -34 c0 -6 -4 -7
-10 -4 -5 3 -10 11 -10 16 0 6 5 7 10 4 6 -3 10 -11 10 -16z m2220 1 c33 -25
19 -25 -22 0 -18 11 -26 20 -18 20 8 0 26 -9 40 -20z m-3910 -12 c0 -13 -23
-5 -28 10 -2 7 2 10 12 6 9 -3 16 -11 16 -16z m-107 -12 c18 -7 40 -22 50 -33
26 -30 32 -84 12 -108 -16 -20 -16 -19 -9 5 6 24 5 24 -9 5 -8 -11 -14 -27
-12 -36 3 -13 -3 -15 -26 -13 -17 2 -27 0 -24 -6 8 -13 -94 0 -126 16 -39 19
-52 40 -45 71 4 22 4 24 -3 8 -5 -11 -12 -28 -15 -38 -8 -25 -26 -12 -26 19 0
91 132 153 233 110z m1761 -83 c-8 -87 -8 -88 -15 -38 -4 28 -7 66 -7 85 1 32
2 31 8 -10 l7 -45 1 54 c1 30 5 52 8 48 4 -3 3 -46 -2 -94z m2170 83 c122 -51
87 -186 -54 -209 l-35 -6 40 19 c36 18 37 19 10 14 -29 -4 -29 -4 -6 6 14 6
31 8 38 5 8 -2 12 -1 9 4 -3 4 6 19 19 31 26 24 33 54 15 65 -6 4 -7 -1 -3
-12 5 -14 -1 -11 -25 9 -60 50 -143 46 -179 -8 -30 -46 -1 -87 72 -105 24 -6
21 -7 -18 -6 -27 1 -44 3 -37 5 7 3 4 9 -7 18 -23 17 -36 18 -28 2 4 -7 -5 0
-19 15 -32 34 -33 65 -4 102 49 62 135 83 212 51z m-3794 -37 c0 -10 -5 -19
-12 -19 -6 0 -8 3 -5 6 3 4 2 15 -4 25 -7 15 -6 17 6 13 8 -4 15 -15 15 -25z
m3962 19 c-9 -9 -15 -9 -24 0 -9 9 -7 12 12 12 19 0 21 -3 12 -12z m-2301 -78
l-10 -25 0 25 c-1 14 3 36 7 50 l7 25 3 -25 c2 -14 -2 -37 -7 -50z m-221 -40
c0 -28 2 -30 40 -30 29 0 40 -4 40 -15 0 -11 -11 -15 -40 -15 -29 0 -40 -4
-40 -15 0 -11 -11 -15 -40 -15 l-40 0 0 60 0 60 40 0 c38 0 40 -2 40 -30z
m-1759 -27 c12 -16 12 -17 -2 -6 -9 7 -20 9 -24 5 -5 -4 -5 -1 -1 6 9 16 11
15 27 -5z m2534 -33 c-3 -5 1 -10 9 -10 23 0 19 -15 -4 -18 -11 -1 -48 -2 -82
-3 -46 -2 -56 -4 -39 -11 13 -4 50 -6 82 -4 45 3 59 1 59 -10 0 -11 -19 -14
-80 -14 -64 0 -80 3 -80 15 0 9 -10 15 -22 16 -19 1 -18 2 7 10 17 5 39 7 50
4 27 -6 96 6 89 16 -2 4 -12 6 -22 3 -14 -5 -15 -4 -2 5 19 14 43 14 35 1z
m-55 -10 c0 -7 -14 -8 -37 -4 -52 9 -54 14 -5 14 23 0 42 -5 42 -10z m-335
-12 c44 0 103 -5 130 -13 l50 -14 -60 0 c-34 0 -52 3 -42 8 10 3 -18 7 -62 8
-44 1 -83 -2 -86 -7 -4 -6 -11 -10 -16 -10 -6 0 -7 5 -4 10 6 9 -10 14 -42 13
-7 -1 -13 4 -13 9 0 6 13 7 33 2 17 -4 68 -6 112 -6z m200 2 c-44 -11 -65 -11
-65 0 0 6 21 9 48 9 42 -1 44 -2 17 -9z m-1508 -52 c-3 -7 -5 -2 -5 12 0 14 2
19 5 13 2 -7 2 -19 0 -25z m20 0 c-3 -7 -5 -2 -5 12 0 14 2 19 5 13 2 -7 2
-19 0 -25z m20 0 c-3 -7 -5 -2 -5 12 0 14 2 19 5 13 2 -7 2 -19 0 -25z m20 0
c-3 -7 -5 -2 -5 12 0 14 2 19 5 13 2 -7 2 -19 0 -25z m20 0 c-3 -7 -5 -2 -5
12 0 14 2 19 5 13 2 -7 2 -19 0 -25z m20 0 c-3 -7 -5 -2 -5 12 0 14 2 19 5 13
2 -7 2 -19 0 -25z m220 0 c-3 -7 -5 -2 -5 12 0 14 2 19 5 13 2 -7 2 -19 0 -25z
m20 0 c-3 -7 -5 -2 -5 12 0 14 2 19 5 13 2 -7 2 -19 0 -25z m20 0 c-3 -7 -5
-2 -5 12 0 14 2 19 5 13 2 -7 2 -19 0 -25z m20 0 c-3 -7 -5 -2 -5 12 0 14 2
19 5 13 2 -7 2 -19 0 -25z m20 0 c-3 -7 -5 -2 -5 12 0 14 2 19 5 13 2 -7 2
-19 0 -25z m20 0 c-3 -7 -5 -2 -5 12 0 14 2 19 5 13 2 -7 2 -19 0 -25z m122
26 c41 -5 61 -11 61 -20 0 -11 -20 -14 -85 -14 -78 0 -85 2 -85 20 0 23 11 24
109 14z m1644 -1 c-13 -2 -33 -2 -45 0 -13 2 -3 4 22 4 25 0 35 -2 23 -4z
m-1108 -13 c-3 -5 -22 -10 -41 -10 -19 0 -34 5 -34 10 0 6 18 10 41 10 24 0
38 -4 34 -10z m-2074 -144 l61 -46 4 -131 c5 -126 4 -130 -14 -120 -26 14 -71
68 -84 100 -12 30 -48 225 -48 255 1 18 2 19 10 4 6 -9 38 -37 71 -62z m1276
68 c-3 -3 -12 -4 -19 -1 -8 3 -5 6 6 6 11 1 17 -2 13 -5z m1026 -1 c-13 -2
-33 -2 -45 0 -13 2 -3 4 22 4 25 0 35 -2 23 -4z m572 -12 c164 -8 160 -8 -100
-7 -148 1 -256 3 -240 5 24 3 26 5 11 10 -10 4 21 6 70 3 49 -2 166 -7 259
-11z m68 12 c-13 -2 -33 -2 -45 0 -13 2 -3 4 22 4 25 0 35 -2 23 -4z m1612
-60 c-10 -110 -25 -175 -53 -226 -44 -82 -47 -77 -44 66 l3 132 47 48 c25 26
48 47 49 47 2 0 1 -30 -2 -67z m-2796 53 c-2 -2 -119 -6 -259 -8 -140 -3 -210
-2 -155 2 115 7 420 12 414 6z m335 -6 c2 -3 -51 -5 -120 -4 -69 1 -127 4
-130 6 -2 3 51 5 120 4 68 0 127 -3 130 -6z m289 -7 c-13 -2 -33 -2 -45 0 -13
2 -3 4 22 4 25 0 35 -2 23 -4z m262 -22 c-88 -3 -180 -3 -205 0 -25 4 47 6
160 6 l205 -1 -160 -5z m1355 1 c0 -11 -362 -13 -430 -3 -39 6 16 9 188 10
133 0 242 -3 242 -7z m37 2 c-3 -3 -12 -4 -19 -1 -8 3 -5 6 6 6 11 1 17 -2 13
-5z m-1094 -11 c-13 -2 -33 -2 -45 0 -13 2 -3 4 22 4 25 0 35 -2 23 -4z m470
0 c-18 -2 -48 -2 -65 0 -18 2 -4 4 32 4 36 0 50 -2 33 -4z m-1126 -118 c2014
0 2075 -1 1910 -34 -63 -13 -3791 -20 -3853 -8 -22 4 -53 19 -70 33 l-29 24
30 -7 c17 -5 922 -8 2012 -8z m-518 -131 c2 -2 2 -6 -1 -9 -3 -3 -253 -2 -554
2 -514 7 -532 8 -279 13 270 5 826 1 834 -6z m2437 -101 c-1 -29 -6 -40 -21
-45 -28 -9 -3756 -8 -3829 1 -58 7 -86 26 -86 59 0 12 3 12 15 2 32 -27 312
-31 2052 -28 l1788 3 40 21 c22 12 41 22 41 23 1 0 1 -16 0 -36z"/>
<path d="M7090 5625 c-253 -35 -486 -122 -694 -258 -161 -106 -389 -359 -354
-393 7 -7 27 -15 43 -18 28 -6 34 -1 90 70 224 283 632 480 1060 512 97 7 100
8 109 35 17 49 0 62 -85 64 -41 1 -117 -5 -169 -12z"/>
<path d="M6009 4938 c-30 -31 -71 -122 -63 -141 8 -21 52 -31 71 -16 14 13 46
69 63 113 7 18 4 29 -11 45 -25 27 -33 26 -60 -1z"/>
<path d="M8518 5019 c-26 -15 -22 -30 18 -90 45 -67 94 -173 120 -259 14 -50
18 -96 18 -200 -1 -119 -4 -146 -29 -225 -46 -148 -45 -164 12 -165 27 0 53
42 86 141 39 118 53 250 38 361 -15 119 -64 263 -113 341 -61 96 -104 123
-150 96z"/>
<path d="M8540 4024 c-17 -20 -39 -52 -48 -71 -16 -33 -16 -36 3 -49 10 -8 26
-14 36 -14 17 0 63 47 96 97 17 25 16 26 -11 49 -15 13 -31 24 -36 24 -4 0
-22 -16 -40 -36z"/>
<path d="M7250 4715 c-59 -19 -123 -74 -149 -128 -72 -148 39 -309 229 -332
108 -13 230 40 286 125 31 47 42 121 25 173 -18 54 -83 121 -142 147 -67 28
-186 36 -249 15z m221 -76 c81 -40 116 -106 97 -177 -13 -49 -41 -77 -107
-108 -93 -44 -206 -24 -273 49 -28 32 -38 54 -16 41 7 -4 8 -3 4 5 -4 6 -11 9
-16 6 -10 -6 -20 19 -20 54 0 33 33 86 72 114 64 47 183 55 259 16z"/>
<path d="M7275 4594 c-68 -35 -90 -86 -61 -142 52 -100 236 -100 290 0 17 32
17 35 1 73 -10 22 -17 43 -17 48 1 4 -1 6 -5 5 -5 0 -25 6 -45 15 -47 21 -124
22 -163 1z"/>
<path d="M5081 2724 c0 -11 3 -14 6 -6 3 7 2 16 -1 19 -3 4 -6 -2 -5 -13z"/>
<path d="M5528 2463 c6 -2 18 -2 25 0 6 3 1 5 -13 5 -14 0 -19 -2 -12 -5z"/>
<path d="M5688 2463 c28 -2 76 -2 105 0 28 2 5 3 -53 3 -58 0 -81 -1 -52 -3z"/>
<path d="M7212 3305 l1 -110 7 90 c3 50 2 99 -2 110 -3 11 -6 -29 -6 -90z"/>
<path d="M9065 3540 c-3 -5 -1 -10 4 -10 6 0 11 5 11 10 0 6 -2 10 -4 10 -3 0
-8 -4 -11 -10z"/>
<path d="M6845 3596 c-9 -13 -25 -26 -37 -29 -27 -7 -18 -31 13 -35 39 -4 55
12 42 41 -9 18 -9 27 0 36 6 6 8 11 4 11 -3 0 -14 -11 -22 -24z m0 -46 c-3 -5
-10 -10 -16 -10 -5 0 -9 5 -9 10 0 6 7 10 16 10 8 0 12 -4 9 -10z"/>
<path d="M8695 3241 c-3 -5 -2 -12 3 -15 5 -3 9 1 9 9 0 17 -3 19 -12 6z"/>
<path d="M5320 2752 c-8 -10 -10 -11 -5 -3 8 13 7 14 -5 4 -9 -7 -17 -28 -18
-47 -2 -27 3 -39 25 -56 23 -18 38 -21 93 -18 36 2 65 8 65 13 1 6 6 20 13 33
16 28 2 56 -38 77 -40 21 -111 19 -130 -3z"/>
<path d="M9181 2690 c0 -8 4 -22 9 -30 12 -18 12 -2 0 25 -6 13 -9 15 -9 5z"/>
<path d="M8517 6443 c-2 -4 -3 -30 -1 -58 l2 -50 453 -5 454 -5 63 -34 c35
-19 80 -54 101 -77 67 -76 71 -103 71 -480 l0 -334 65 0 65 0 0 333 c0 354 -5
398 -51 490 -36 70 -129 151 -217 189 l-77 33 -462 3 c-253 2 -463 -1 -466 -5z"/>
<path d="M5315 6204 c-94 -30 -135 -77 -135 -154 0 -104 103 -180 226 -167
105 11 175 73 182 162 3 40 -1 57 -20 85 -45 69 -162 102 -253 74z m120 -35
c51 -14 105 -68 105 -104 0 -36 -33 -89 -65 -103 -19 -9 -24 -9 -19 -1 4 7 0
9 -12 6 -24 -8 -74 -16 -54 -9 12 4 11 7 -5 13 -14 6 -10 7 14 3 26 -5 32 -3
26 7 -6 8 -4 11 7 7 8 -4 20 2 27 14 8 13 18 17 34 13 15 -4 18 -3 9 3 -8 5
-13 15 -12 23 5 30 -1 40 -32 59 -36 22 -98 26 -129 9 -11 -5 -29 -25 -41 -42
-16 -25 -19 -27 -15 -9 3 12 1 20 -4 16 -5 -3 -9 -14 -9 -25 0 -11 -4 -17 -10
-14 -17 10 -11 -11 11 -41 l21 -29 -26 28 c-18 20 -26 39 -26 65 1 52 29 83
97 108 47 16 58 17 108 3z m-111 -178 c-3 -3 -15 6 -27 18 l-22 24 27 -19 c14
-10 24 -21 22 -23z m-43 12 c13 -16 12 -17 -3 -4 -10 7 -18 15 -18 17 0 8 8 3
21 -13z"/>
<path d="M9235 6190 c-75 -36 -106 -77 -107 -140 -1 -53 41 -115 97 -144 56
-29 154 -29 215 1 82 41 127 150 85 209 -8 12 -12 24 -10 28 3 3 2 4 -1 2 -3
-3 -16 4 -28 16 -53 51 -175 65 -251 28z m187 -36 c33 -17 68 -61 68 -85 0
-42 -24 -66 -33 -31 -3 11 -5 7 -6 -10 -1 -35 -49 -69 -104 -74 -31 -3 -37 -2
-22 5 16 7 10 9 -23 8 -28 -1 -46 4 -52 13 -6 8 -10 11 -10 6 0 -5 -8 -2 -18
7 -10 10 -22 14 -25 11 -14 -15 -28 49 -17 77 35 84 152 119 242 73z"/>
<path d="M9251 6094 c-39 -33 -39 -58 -1 -94 26 -24 37 -28 68 -23 20 3 54 13
74 24 26 13 38 15 41 6 2 -7 4 6 3 28 -1 33 -6 43 -35 62 -48 32 -110 31 -150
-3z"/>
<path d="M5132 4265 c0 -16 2 -22 5 -12 2 9 2 23 0 30 -3 6 -5 -1 -5 -18z"/>
<path d="M9609 3928 c-2 -128 -2 -309 1 -403 4 -120 7 -51 8 233 1 221 0 402
-2 402 -2 0 -5 -105 -7 -232z"/>
<path d="M5120 4040 c0 -33 3 -40 20 -40 17 0 20 7 20 40 0 33 -3 40 -20 40
-17 0 -20 -7 -20 -40z"/>
<path d="M9634 3480 c0 -589 0 -593 6 -175 3 237 2 509 -1 605 -3 96 -5 -97
-5 -430z"/>
<path d="M5205 4045 c3 -16 11 -34 16 -39 17 -18 15 -1 -4 34 -19 35 -19 35
-12 5z"/>
<path d="M5310 3935 c0 -8 2 -15 4 -15 2 0 6 7 10 15 3 8 1 15 -4 15 -6 0 -10
-7 -10 -15z"/>
<path d="M9614 3040 c0 -135 2 -190 3 -122 2 67 2 177 0 245 -1 67 -3 12 -3
-123z"/>
<path d="M9055 2790 c4 -6 11 -8 16 -5 14 9 11 15 -7 15 -8 0 -12 -5 -9 -10z"/>
<path d="M9632 2775 c0 -16 2 -22 5 -12 2 9 2 23 0 30 -3 6 -5 -1 -5 -18z"/>
<path d="M9041 2764 c0 -11 3 -14 6 -6 3 7 2 16 -1 19 -3 4 -6 -2 -5 -13z"/>
<path d="M9083 2768 c-13 -17 -37 -117 -29 -125 3 -3 9 14 13 38 6 40 7 42 15
19 7 -23 7 -22 4 5 -5 33 10 69 25 60 5 -4 9 -1 9 4 0 15 -25 14 -37 -1z"/>
<path d="M9042 2715 c0 -16 2 -22 5 -12 2 9 2 23 0 30 -3 6 -5 -1 -5 -18z"/>
<path d="M9626 2723 c-4 -9 -3 -20 1 -24 4 -4 9 3 9 17 2 28 -1 31 -10 7z"/>
<path d="M9612 2660 c0 -14 2 -19 5 -12 2 6 2 18 0 25 -3 6 -5 1 -5 -13z"/>
<path d="M9475 2570 c-3 -5 -1 -10 4 -10 6 0 11 5 11 10 0 6 -2 10 -4 10 -3 0
-8 -4 -11 -10z"/>
<path d="M9220 2520 c34 -11 60 -11 35 0 -11 5 -29 8 -40 8 -16 0 -15 -2 5 -8z"/>
<path d="M9470 2509 c0 -5 5 -7 10 -4 6 3 10 8 10 11 0 2 -4 4 -10 4 -5 0 -10
-5 -10 -11z"/>
<path d="M9078 2463 c23 -2 61 -2 85 0 23 2 4 4 -43 4 -47 0 -66 -2 -42 -4z"/>
</g>
</svg>
